{"title":"Foo Fighters - Greatest Hits CD/DVD set (2009) [FLAC] by matesio","uid":8095609,"size":4951448776,"categoryP":"audio","categoryS":"flac","magnet":"?xt=urn:btih:7a153c87d4934d45fd63309d8dd33eb4e1146d9e&amp;dn=Foo+Fighters+-+Greatest+Hits+CD%2FDVD+set+%282009%29+%5BFLAC%5D+by+matesio&amp;tr=udp%3A%2F%2Ftracker.openbittorrent.com%3A80&amp;tr=udp%3A%2F%2Fopen.demonii.com%3A1337&amp;tr=udp%3A%2F%2Ftracker.coppersurfer.tk%3A6969&amp;tr=udp%3A%2F%2Fexodus.desync.com%3A6969","seeders":1,"leechers":1,"uploader":"matesio","files":42,"time":1359829055,"description":"---------------------------------------------------------------------\n                    Foo Fighters - Greatest Hits\n---------------------------------------------------------------------\n\nArtist...............: Foo Fighters\nAlbum................: Greatest Hits\nGenre................: Alternative Rock\nSource...............: CD\nYear.................: 2009\nRipper...............: My Encoder &amp; Samsung\nCodec................: Free Lossless Audio Codec (FLAC)\nVersion..............: reference libFLAC 1.2.1 20070917\nQuality..............: Lossless, (avg. compression: 70 %)\nChannels.............: Stereo / 44100 HZ / 16 Bit\nTags.................: Compilation\nInformation..........: matesioCDrip for CzT\n\nRipped by............: by Matesio on 2.2.2013\nPosted by............: by Matesio on 2.2.2013\nNews Server..........: \nNews Group(s)........: \n\nIncluded.............: NFO\nCovers...............: Front Back CD \n\n---------------------------------------------------------------------\n                       Tracklisting\n---------------------------------------------------------------------\n\n   1. Foo Fighters - All My Life                              [04:24]\n   2. Foo Fighters - Best Of You                              [04:16]\n   3. Foo Fighters - Everlong                                 [04:10]\n   4. Foo Fighters - The Pretender                            [04:27]\n   5. Foo Fighters - My Hero                                  [04:18]\n   6. Foo Fighters - Learn To Fly                             [03:56]\n   7. Foo Fighters - Times Like These                         [04:27]\n   8. Foo Fighters - Monkey Wrench                            [03:52]\n   9. Foo Fighters - Big Me                                   [02:14]\n  10. Foo Fighters - Breakout                                 [03:21]\n  11. Foo Fighters - Long Road To Ruin                        [03:48]\n  12. Foo Fighters - This Is A Call                           [03:54]\n  13. Foo Fighters - Skin And Bones                           [04:03]\n  14. Foo Fighters - Wheels                                   [04:38]\n  15. Foo Fighters - Word Forward                             [03:48]\n  16. Foo Fighters - Everlong [Acoustic Version]              [04:10]\n\nPlaying Time.........: 01:03:54\nTotal Size...........: 448.06 MB\n\nNFO generated on.....: 2.2.2013 11:35:23\n\n\n:: Generated by Music NFO Builder v1.21a - www.nfobuilder.com ::\n\n----------------------------------------------------------------------------\n----------------------------------------------------------------------------\n\nDVD INFO:\n\n1.\t&quot;I'll Stick Around&quot;  \t \n2.\t&quot;Big Me&quot;  \t \n3.\t&quot;Monkey Wrench&quot;  \t \n4.\t&quot;Everlong&quot;  \t \n5.\t&quot;My Hero&quot;  \t \n6.\t&quot;Walking After You&quot;  \t \n7.\t&quot;Learn to Fly&quot;  \t \n8.\t&quot;Next Year&quot;  \t \n9.\t&quot;All My Life&quot;  \t \n10.\t&quot;Times Like These&quot; (Acoustic version)\t \n11.\t&quot;Low&quot;  \t \n12.\t&quot;Best of You&quot;  \t \n13.\t&quot;DOA&quot;  \t \n14.\t&quot;Resolve&quot; (Non-glow version)\t \n15.\t&quot;The Pretender&quot;  \t \n16.\t&quot;Long Road to Ruin&quot;  \t \n17.\t&quot;Wheels&quot;  \t \n18.\t&quot;Everlong&quot; (Live - &quot;Everywhere but Home&quot; DVD)\t \n19.\t&quot;Breakout&quot; (Live from Hyde Park)\t \n20.\t&quot;Skin and Bones&quot; (Live from Hollywood - &quot;Skin and Bones&quot; DVD)\t \n21.\t&quot;All My Life&quot; (Live - &quot;Live from Wembley Stadium&quot; DVD)\n\n   \nGeneral\n      Complete name : FOO_FIGHTERSVIDEO_TSVTS_01_3.VOB\n      Format : MPEG-PS\n      File size : 1 024 MiB\n      Duration : 2mn 6s\n      Overall bit rate mode : Variable\n      Overall bit rate : 68.0 Mbps\n   Video #224\n      ID : 224 (0xE0)\n      Format : MPEG Video\n      Format version : Version 2\n      Format profile : Main@Main\n      Format settings, BVOP : Yes\n      Format settings, Matrix : Custom\n      Duration : 2mn 6s\n      Bit rate mode : Variable\n      Bit rate : 66.5 Mbps\n      Maximum bit rate : 9 800 Kbps\n      Width : 720 pixels\n      Height : 480 pixels\n      Display aspect ratio : 4:3\n      Frame rate : 29.970 fps\n      Standard : NTSC\n      Color space : YUV\n      Chroma subsampling : 4:2:0\n      Bit depth : 8 bits\n      Scan type : Interlaced\n      Scan order : Top Field First\n      Compression mode : Lossy\n      Bits/(Pixel*Frame) : 6.417\n      Stream size : 999 MiB (98%)\n   Audio #189-128\n      ID : 189 (0xBD)-128 (0x80)\n      Format : AC-3\n      Format/Info : Audio Coding 3\n      Mode extension : CM (complete main)\n      Muxing mode : DVD-Video\n      Duration : 2mn 6s\n      Bit rate mode : Constant\n      Bit rate : 224 Kbps\n      Channel(s) : 2 channels\n      Channel positions : Front: L R\n      Sampling rate : 48.0 KHz\n      Bit depth : 16 bits\n      Compression mode : Lossy\n      Delay relative to video : -396ms\n      Stream size : 3.37 MiB (0%)\n\nTake it!,hear it!,love it! Matesio","torrent":{"xt":"urn:btih:7a153c87d4934d45fd63309d8dd33eb4e1146d9e","amp;dn":"Foo+Fighters+-+Greatest+Hits+CD%2FDVD+set+%282009%29+%5BFLAC%5D+by+matesio","amp;tr":["udp%3A%2F%2Ftracker.openbittorrent.com%3A80","udp%3A%2F%2Fopen.demonii.com%3A1337","udp%3A%2F%2Ftracker.coppersurfer.tk%3A6969","udp%3A%2F%2Fexodus.desync.com%3A6969"],"infoHash":"7a153c87d4934d45fd63309d8dd33eb4e1146d9e","infoHashBuffer":{"type":"Buffer","data":[122,21,60,135,212,147,77,69,253,99,48,157,141,211,62,180,225,20,109,158]},"announce":[],"urlList":[]}}